<svg width="19" height="23" viewBox="0 0 19 23" fill="none" xmlns="http://www.w3.org/2000/svg">
<path fill-rule="evenodd" clip-rule="evenodd" d="M7.37509 0.702497C7.8461 0.251673 8.47295 0 9.125 0C9.77711 0 10.404 0.251718 10.875 0.702616C11.8447 1.62567 13.6512 3.45767 15.2249 5.71993C16.7705 7.94081 18.25 10.7977 18.25 13.725C18.25 18.5455 14.0365 22.2314 9.125 22.2314C4.21353 22.2314 0 18.5455 0 13.725C0 10.7978 1.47941 7.94098 3.02499 5.72014M7.37509 0.702497C6.40477 1.62513 4.59849 3.45806 3.02513 5.71993ZM9.125 2C8.98808 2 8.85646 2.05291 8.75764 2.14768L8.75454 2.15065L8.75453 2.15065C7.83305 3.02674 6.13254 4.75507 4.66685 6.8622L4.66671 6.8624C3.192 8.98136 2 11.4198 2 13.725C2 17.2809 5.15097 20.2314 9.125 20.2314C13.099 20.2314 16.25 17.2809 16.25 13.725C16.25 11.4198 15.058 8.98136 13.5833 6.8624L13.5832 6.8622C12.1176 4.75522 10.4171 3.02798 9.49503 2.15023L9.49236 2.14768C9.39353 2.05291 9.26192 2 9.125 2Z" fill="white"/>
<path fill-rule="evenodd" clip-rule="evenodd" d="M4.79166 12.1064C5.34394 12.1064 5.79166 12.5541 5.79166 13.1064C5.79166 13.9905 6.14285 14.8383 6.76797 15.4634C7.39309 16.0886 8.24094 16.4397 9.12499 16.4397C9.67727 16.4397 10.125 16.8875 10.125 17.4397C10.125 17.992 9.67727 18.4397 9.12499 18.4397C7.7105 18.4397 6.35395 17.8778 5.35375 16.8777C4.35356 15.8775 3.79166 14.5209 3.79166 13.1064C3.79166 12.5541 4.23937 12.1064 4.79166 12.1064Z" fill="white"/>
</svg>
