<svg width="26" height="26" viewBox="0 0 26 26" fill="none" xmlns="http://www.w3.org/2000/svg">
<path fill-rule="evenodd" clip-rule="evenodd" d="M11.2501 2.76274C11.7211 2.31192 12.348 2.06024 13 2.06024C13.6521 2.06024 14.279 2.31196 14.75 2.76286C15.7197 3.68591 17.5262 5.51791 19.0999 7.78018C20.6455 10.001 22.125 12.858 22.125 15.7852C22.125 20.6057 17.9115 24.2917 13 24.2917C8.08853 24.2917 3.875 20.6057 3.875 15.7852C3.875 12.8581 5.35441 10.0012 6.89999 7.78038M11.2501 2.76274C10.2798 3.68537 8.47349 5.5183 6.90013 7.78018L11.2501 2.76274ZM13 4.06024C12.8631 4.06024 12.7315 4.11315 12.6326 4.20792L12.6295 4.2109L12.6295 4.21089C11.708 5.08699 10.0075 6.81531 8.54185 8.92244L8.54171 8.92264C7.067 11.0416 5.875 13.48 5.875 15.7852C5.875 19.3411 9.02597 22.2917 13 22.2917C16.974 22.2917 20.125 19.3411 20.125 15.7852C20.125 13.48 18.933 11.0416 17.4583 8.92264L17.4582 8.92244C15.9926 6.81546 14.2921 5.08822 13.37 4.21047L13.3674 4.20792C13.2685 4.11315 13.1369 4.06024 13 4.06024Z" fill="white"/>
<path fill-rule="evenodd" clip-rule="evenodd" d="M8.66666 14.1667C9.21894 14.1667 9.66666 14.6144 9.66666 15.1667C9.66666 16.0507 10.0178 16.8986 10.643 17.5237C11.2681 18.1488 12.1159 18.5 13 18.5C13.5523 18.5 14 18.9477 14 19.5C14 20.0523 13.5523 20.5 13 20.5C11.5855 20.5 10.2289 19.9381 9.22875 18.9379C8.22856 17.9377 7.66666 16.5811 7.66666 15.1667C7.66666 14.6144 8.11437 14.1667 8.66666 14.1667Z" fill="white"/>
</svg>
