<svg width="20" height="20" viewBox="0 0 20 20" fill="none" xmlns="http://www.w3.org/2000/svg">
<path d="M8.33333 1.66669C7.29047 1.66724 6.26229 1.91245 5.33141 2.38259C4.40054 2.85274 3.59295 3.53471 2.97354 4.37369C2.35414 5.21268 1.94019 6.18528 1.76499 7.21331C1.58978 8.24135 1.6582 9.29615 1.96473 10.2929C2.27127 11.2897 2.80738 12.2007 3.52997 12.9527C4.25257 13.7046 5.14149 14.2765 6.12529 14.6225C7.1091 14.9685 8.16034 15.0788 9.19454 14.9446C10.2287 14.8105 11.217 14.4356 12.08 13.85L16.2 17.9667C16.3144 18.0895 16.4524 18.188 16.6058 18.2563C16.7591 18.3246 16.9246 18.3614 17.0925 18.3643C17.2603 18.3673 17.427 18.3364 17.5827 18.2736C17.7383 18.2107 17.8797 18.1171 17.9984 17.9984C18.1171 17.8797 18.2107 17.7383 18.2735 17.5827C18.3364 17.427 18.3673 17.2603 18.3643 17.0925C18.3614 16.9246 18.3246 16.7591 18.2563 16.6058C18.188 16.4525 18.0895 16.3145 17.9667 16.2L13.85 12.08C14.5311 11.0777 14.926 9.90861 14.9924 8.69858C15.0588 7.48855 14.7941 6.28331 14.2268 5.21246C13.6595 4.1416 12.811 3.24563 11.7726 2.62088C10.7342 1.99614 9.54518 1.66625 8.33333 1.66669ZM4.16666 8.33335C4.16666 7.22829 4.60565 6.16848 5.38705 5.38708C6.16846 4.60567 7.22826 4.16669 8.33333 4.16669C9.4384 4.16669 10.4982 4.60567 11.2796 5.38708C12.061 6.16848 12.5 7.22829 12.5 8.33335C12.5 9.43842 12.061 10.4982 11.2796 11.2796C10.4982 12.061 9.4384 12.5 8.33333 12.5C7.22826 12.5 6.16846 12.061 5.38705 11.2796C4.60565 10.4982 4.16666 9.43842 4.16666 8.33335Z" fill="black"/>
</svg>
