<svg width="30" height="30" viewBox="0 0 30 30" fill="none" xmlns="http://www.w3.org/2000/svg">
<path d="M9.1095 8.718C9.36659 7.44285 10.0882 6.30865 11.1343 5.53546C12.1804 4.76228 13.4764 4.40524 14.7708 4.53362C16.0653 4.662 17.2659 5.26665 18.1398 6.23025C19.0136 7.19385 19.4984 8.44769 19.5 9.7485C19.5002 10.4381 19.3645 11.1209 19.1008 11.7581C18.8371 12.3952 18.4504 12.9741 17.9628 13.4618C17.4753 13.9494 16.8965 14.3363 16.2594 14.6002C15.6224 14.8642 14.9396 15 14.25 15H4.125C3.82663 15 3.54048 14.8815 3.3295 14.6705C3.11853 14.4595 3 14.1734 3 13.875C3 13.5766 3.11853 13.2905 3.3295 13.0795C3.54048 12.8685 3.82663 12.75 4.125 12.75H14.25C15.0292 12.7258 15.7685 12.3993 16.3112 11.8396C16.854 11.28 17.1577 10.5311 17.1581 9.75146C17.1585 8.97184 16.8555 8.22265 16.3133 7.66246C15.7711 7.10227 15.0322 6.77504 14.253 6.75C12.825 6.75 11.595 7.758 11.316 9.159L11.2275 9.5955C11.1605 9.87937 10.9859 10.1261 10.7404 10.2837C10.495 10.4413 10.198 10.4974 9.91196 10.4402C9.62596 10.383 9.37335 10.217 9.20741 9.9771C9.04147 9.73724 8.97517 9.44231 9.0225 9.1545L9.1095 8.718ZM20.04 14.031C20.4108 13.2917 21.0201 12.6991 21.7694 12.349C22.5187 11.9989 23.3641 11.9118 24.1691 12.1018C24.974 12.2917 25.6914 12.7477 26.2051 13.3958C26.7188 14.044 26.9989 14.8465 27 15.6735V15.75C27 16.7446 26.6049 17.6984 25.9016 18.4017C25.1984 19.1049 24.2446 19.5 23.25 19.5H21.876C22.0892 20.0409 22.1669 20.6256 22.1025 21.2034C22.0381 21.7812 21.8334 22.3344 21.5063 22.815C21.1792 23.2956 20.7396 23.689 20.2257 23.9609C19.7119 24.2327 19.1393 24.3749 18.558 24.375C17.9709 24.3756 17.3927 24.2313 16.8746 23.955C16.3565 23.6787 15.9146 23.2789 15.588 22.791L15.5655 22.755C15.4782 22.6324 15.4163 22.4936 15.3836 22.3467C15.3509 22.1998 15.348 22.0478 15.375 21.8997C15.4021 21.7517 15.4586 21.6106 15.5412 21.4847C15.6238 21.3589 15.7308 21.251 15.8559 21.1672C15.981 21.0835 16.1216 21.0257 16.2694 20.9973C16.4172 20.9689 16.5692 20.9705 16.7164 21.0019C16.8636 21.0333 17.003 21.0939 17.1263 21.1802C17.2497 21.2664 17.3545 21.3765 17.4345 21.504L17.4585 21.54C17.703 21.9045 18.117 22.125 18.558 22.125C18.7304 22.1253 18.9011 22.0916 19.0604 22.026C19.2198 21.9603 19.3647 21.8638 19.4867 21.7422C19.6088 21.6205 19.7057 21.476 19.772 21.3169C19.8382 21.1577 19.8725 20.9871 19.8727 20.8148C19.873 20.6424 19.8394 20.4717 19.7737 20.3123C19.708 20.153 19.6116 20.0081 19.4899 19.886C19.3683 19.7639 19.2237 19.667 19.0646 19.6008C18.9055 19.5345 18.7349 19.5003 18.5625 19.5H4.125C3.82663 19.5 3.54048 19.3815 3.3295 19.1705C3.11853 18.9595 3 18.6734 3 18.375C3 18.0766 3.11853 17.7905 3.3295 17.5795C3.54048 17.3685 3.82663 17.25 4.125 17.25H23.25C23.6478 17.25 24.0294 17.092 24.3107 16.8107C24.592 16.5294 24.75 16.1478 24.75 15.75V15.675C24.7496 15.3544 24.641 15.0432 24.4419 14.7919C24.2428 14.5406 23.9647 14.3638 23.6526 14.2901C23.3406 14.2163 23.0128 14.25 22.7222 14.3857C22.4317 14.5213 22.1954 14.7509 22.0515 15.0375L22.0065 15.1275C21.9412 15.2609 21.8502 15.38 21.7386 15.478C21.6271 15.576 21.4973 15.6509 21.3566 15.6985C21.216 15.7461 21.0673 15.7653 20.9192 15.7552C20.7711 15.745 20.6264 15.7057 20.4936 15.6394C20.3607 15.573 20.2423 15.4811 20.1452 15.3688C20.0481 15.2565 19.9741 15.1261 19.9277 14.9851C19.8812 14.8441 19.8631 14.6952 19.8744 14.5472C19.8857 14.3992 19.9261 14.2548 19.9935 14.1225L20.04 14.031Z" fill="white"/>
</svg>
